#!OML:ASF F:\VICON\USERDATA\INSTALL\rory3\rory3.ASF
:FULLY-SPECIFIED
:DEGREES
1865
root 3.23412 16.6105 -2.31596 3.80794 32.6123 3.56137
lowerback 9.61675 -4.00468 -4.26871
upperback 0.663447 -5.67815 2.01807
thorax -4.06117 -2.72134 5.21114
lowerneck -15.7442 -8.75328 -14.2281
upperneck 17.9647 -11.4651 13.2253
head 9.92873 -5.00765 5.36385
rclavicle 9.18385e-014 1.11319e-014
rhumerus -4.86974 -2.46677 -74.7159
rradius 138.03
rwrist -1.03804
rhand -12.4104 26.0444
rfingers 7.12502
rthumb 13.6615 -3.48724
lclavicle 9.18385e-014 1.11319e-014
lhumerus 1.79509 -22.8569 88.7188
lradius 122.801
lwrist -9.27642
lhand -7.11611 5.69627
lfingers 7.12502
lthumb 18.7592 34.8117
rfemur -27.9735 -2.60451 -2.08079
rtibia 51.1577
rfoot -14.3117 -8.0455
rtoes -4.38379
lfemur -9.088 2.48917 -3.48198
ltibia 40.9985
lfoot -18.1553 -8.01766
ltoes -42.674
1866
root 3.31176 16.5116 -2.42787 4.14971 31.6119 3.98108
lowerback 10.2771 -3.97226 -4.35626
upperback 0.158646 -5.67879 2.02248
thorax -4.95164 -2.67631 5.35694
lowerneck -15.331 -8.54857 -14.1495
upperneck 17.9846 -11.1774 12.9031
head 9.78662 -4.91785 5.29276
rclavicle 7.78242e-014 7.95139e-016
rhumerus -5.93263 -2.16654 -74.1619
rradius 138.39
rwrist -0.615763
rhand -12.9805 25.7275
rfingers 7.12502
rthumb 13.112 -3.8403
lclavicle 7.78242e-014 7.95139e-016
lhumerus 1.2661 -22.8873 89.356
lradius 122.874
lwrist -8.71891
lhand -7.11225 5.5532
lfingers 7.12502
lthumb 18.7629 34.6683
rfemur -29.4437 -2.42273 -3.10031
rtibia 52.2595
rfoot -13.4655 -7.64541
rtoes -3.85149
lfemur -9.22709 3.96921 -4.29925
ltibia 41.8408
lfoot -20.1291 -7.71183
ltoes -41.0296
1867
root 3.37741 16.4323 -2.53277 4.38329 30.4991 4.45923
lowerback 10.3848 -3.82766 -4.66427
upperback 0.338894 -5.52553 1.97819
thorax -4.81558 -2.60231 5.46285
lowerneck -15.7767 -8.59543 -13.9672
upperneck 17.8305 -11.1726 12.7194
head 9.79087 -4.90532 5.18183
rclavicle -8.33902e-014 1.90833e-014
rhumerus -5.9872 -2.22894 -73.8469
rradius 138.497
rwrist -0.1919
rhand -13.3077 25.9831
rfingers 7.12502
rthumb 12.7966 -3.60475
lclavicle -8.33902e-014 1.90833e-014
lhumerus 1.85092 -23.0286 89.4217
lradius 122.942
lwrist -8.62712
lhand -7.12905 5.36962
lfingers 7.12502
lthumb 18.7467 34.4863
rfemur -30.849 -2.20374 -4.07824
rtibia 53.3191
rfoot -12.5237 -7.34741
rtoes -2.60525
lfemur -9.16208 5.34864 -5.21507
ltibia 42.5498
lfoot -21.4768 -7.33412
ltoes -37.2901
1868
root 3.42972 16.369 -2.62827 4.5522 29.2782 4.98805
lowerback 10.1998 -3.60189 -5.2305
upperback 0.948125 -5.27085 1.92073
thorax -4.05705 -2.50852 5.63782
lowerneck -16.7155 -8.74355 -13.6763
upperneck 17.45 -11.2686 12.6038
head 9.81941 -4.90855 5.04443
rclavicle -8.46823e-014 7.15625e-015
rhumerus -5.52764 -2.538 -73.7515
rradius 138.552
rwrist 0.315981
rhand -13.3258 25.882
rfingers 7.12502
rthumb 12.7791 -3.70691
lclavicle -8.46823e-014 7.15625e-015
lhumerus 3.14473 -23.0579 89.0805
lradius 122.975
lwrist -8.89646
lhand -6.55225 5.39326
lfingers 7.12502
lthumb 19.3014 34.4554
rfemur -32.254 -1.93158 -5.00604
rtibia 54.311
rfoot -11.5529 -7.19626
rtoes -3.0441
lfemur -8.90353 6.66924 -6.24624
ltibia 42.9837
lfoot -22.5431 -6.72409
ltoes -33.7134
1869
root 3.46899 16.3096 -2.71514 4.63522 28.0969 5.49786
lowerback 10.4111 -3.42726 -5.84212
upperback 1.47098 -5.10572 1.86652
thorax -3.59747 -2.4482 5.89493
lowerneck -17.9597 -8.81978 -13.4645
upperneck 17.2774 -11.2539 12.5939
head 9.97136 -4.84229 4.97409
rclavicle -4.27387e-015 4.05521e-014
rhumerus -5.12649 -2.56469 -73.8761
rradius 138.504
rwrist 0.525231
rhand -13.4239 26.0507
rfingers 7.12502
rthumb 12.6846 -3.54412
lclavicle -4.27387e-015 4.05521e-014
lhumerus 4.09661 -22.7552 88.6809
lradius 123.152
lwrist -9.04706
lhand -5.57101 5.56232
lfingers 7.12502
lthumb 20.2447 34.5273
rfemur -33.5955 -1.58694 -5.83378
rtibia 55.2041
rfoot -10.5361 -7.23059
rtoes -3.9695
lfemur -8.40172 7.98585 -7.30585
ltibia 43.0337
lfoot -23.9185 -5.09525
ltoes -33.0307
1870
root 3.50451 16.2593 -2.78764 4.51595 27.1349 5.80509
lowerback 11.2693 -3.37409 -6.16164
upperback 1.51372 -5.12082 1.80643
thorax -4.00281 -2.43344 6.08321
lowerneck -18.7084 -8.77926 -13.3875
upperneck 17.4359 -11.1463 12.6162
head 10.1458 -4.75504 4.97339
rclavicle 2.98177e-014 -1.82882e-014
rhumerus -5.51333 -2.15643 -74.2075
rradius 138.377
rwrist 0.599453
rhand -13.9629 26.766
rfingers 7.12502
rthumb 12.1649 -2.86029
lclavicle 2.98177e-014 -1.82882e-014
lhumerus 4.09427 -22.4066 88.457
lradius 123.223
lwrist -8.98781
lhand -5.44741 5.54538
lfingers 7.12502
lthumb 20.3635 34.4977
rfemur -34.6176 -1.23481 -6.39652
rtibia 55.9438
rfoot -9.59013 -7.38029
rtoes -3.70914
lfemur -7.63391 8.79612 -8.1259
ltibia 42.7142
lfoot -25.4123 -3.14378
ltoes -32.9939
1871
root 3.54318 16.233 -2.8468 4.17273 26.5301 5.8411
lowerback 11.5349 -3.44485 -6.18661
upperback 1.84077 -5.22083 1.82143
thorax -3.786 -2.49972 6.12977
lowerneck -19.0192 -8.76346 -13.31
upperneck 17.2347 -11.0654 12.5313
head 10.1086 -4.71195 4.93296
rclavicle 1.15295e-014 0
rhumerus -5.70729 -1.80995 -74.5717
rradius 138.21
rwrist 0.808323
rhand -14.3576 27.1464
rfingers 7.12502
rthumb 11.7843 -2.50208
lclavicle 1.15295e-014 0
lhumerus 4.35635 -22.251 88.1866
lradius 123.18
lwrist -8.34132
lhand -5.93689 5.80345
lfingers 7.12502
lthumb 19.893 34.8053
rfemur -35.1699 -1.00335 -6.62286
rtibia 56.4656
rfoot -8.76887 -7.53778
rtoes -3.37854
lfemur -6.79682 8.82196 -8.6545
ltibia 42.1622
lfoot -26.5964 -1.30006
ltoes -32.9851
1872
root 3.58342 16.2194 -2.89593 3.68139 26.3077 5.55488
lowerback 11.7583 -3.6836 -5.85451
upperback 2.04268 -5.49498 1.96184
thorax -3.67323 -2.64859 6.13286
lowerneck -19.0616 -8.66882 -13.3273
upperneck 17.1484 -10.8704 12.3538
head 10.0461 -4.64169 4.90262
rclavicle 6.95746e-015 -2.14687e-014
rhumerus -6.22987 -1.2905 -74.8656
rradius 138.153
rwrist 1.1539
rhand -14.3084 27.1742
rfingers 7.12502
rthumb 11.8318 -2.47151
lclavicle 6.95746e-015 -2.14687e-014
lhumerus 3.98778 -21.921 88.2603
lradius 123.355
lwrist -7.65518
lhand -5.73552 6.2776
lfingers 7.12502
lthumb 20.0866 35.2593
rfemur -35.3471 -1.02957 -6.46458
rtibia 56.7839
rfoot -8.11871 -7.67933
rtoes -3.66788
lfemur -6.04107 8.23827 -8.85831
ltibia 41.5413
lfoot -27.4507 0.468634
ltoes -33.2383
1873
root 3.62104 16.2054 -2.93427 3.15443 26.4524 5.04076
lowerback 11.9507 -4.02381 -5.29916
upperback 2.12656 -5.87194 2.18839
thorax -3.66827 -2.8428 6.11941
lowerneck -19.1303 -8.53861 -13.32
upperneck 17.2971 -10.6426 12.1302
head 10.0626 -4.55638 4.86069
rclavicle -2.34566e-014 -1.03368e-014
rhumerus -7.01316 -0.788601 -75.0467
rradius 138.165
rwrist 1.57626
rhand -14.2387 27.2039
rfingers 7.12502
rthumb 11.8989 -2.43799
lclavicle -2.34566e-014 -1.03368e-014
lhumerus 3.34105 -21.5425 88.5339
lradius 123.404
lwrist -7.52752
lhand -5.35342 6.38967
lfingers 7.12502
lthumb 20.4538 35.3323
rfemur -35.259 -1.31833 -6.03216
rtibia 56.9217
rfoot -7.47606 -7.83304
rtoes -5.12406
lfemur -5.49216 7.46772 -8.77124
ltibia 41.0171
lfoot -28.0398 2.14563
ltoes -33.885
1874
root 3.64991 16.2047 -2.96401 2.81036 26.801 4.54077
lowerback 12.1141 -4.34539 -4.7879
upperback 2.0419 -6.2289 2.44051
thorax -3.8237 -3.01633 6.16529
lowerneck -19.0449 -8.4695 -13.2475
upperneck 17.5056 -10.5224 11.8112
head 10.0782 -4.5315 4.75874
rclavicle 1.05356e-014 1.19271e-014
rhumerus -7.97203 -0.486868 -75.1741
rradius 138.136
rwrist 2.11995
rhand -14.0863 27.151
rfingers 7.12502
rthumb 12.0459 -2.48231
lclavicle 1.05356e-014 1.19271e-014
lhumerus 2.55098 -21.3896 88.9859
lradius 123.228
lwrist -7.51532
lhand -5.35365 6.30365
lfingers 7.12502
lthumb 20.4536 35.2464
rfemur -35.1016 -1.72927 -5.57979
rtibia 56.8844
rfoot -6.85177 -7.85948
rtoes -6.2003
lfemur -5.30237 6.57084 -8.64373
ltibia 40.685
lfoot -28.1787 3.58806
ltoes -34.9465
1875
root 3.66383 16.224 -2.98351 2.71584 27.0616 4.21368
lowerback 12.108 -4.55874 -4.62728
upperback 1.87067 -6.48143 2.70769
thorax -3.95246 -3.13455 6.40009
lowerneck -18.742 -8.41795 -13.2155
upperneck 17.685 -10.4447 11.5143
head 10.0541 -4.53458 4.66849
rclavicle 6.95746e-014 8.74653e-015
rhumerus -8.92148 -0.322838 -75.2273
rradius 138.184
rwrist 2.45529
rhand -13.3495 26.9774
rfingers 7.12502
rthumb 12.7562 -2.61288
lclavicle 6.95746e-014 8.74653e-015
lhumerus 1.66679 -21.3746 89.5709
lradius 122.971
lwrist -7.49531
lhand -5.47626 6.60078
lfingers 7.12502
lthumb 20.3358 35.5561
rfemur -35.0297 -2.04937 -5.22085
rtibia 56.6928
rfoot -6.27924 -7.65098
rtoes -5.64981
lfemur -5.41258 5.57252 -8.65157
ltibia 40.5412
lfoot -27.875 4.64606
ltoes -35.5904
1876
root 3.66491 16.2619 -2.99083 2.65923 27.1876 3.9237
lowerback 11.9601 -4.67016 -4.7334
upperback 1.72649 -6.62708 3.00666
thorax -3.9541 -3.20303 6.78752
lowerneck -18.4326 -8.3733 -13.1387
upperneck 17.8796 -10.3922 11.2217
head 10.0359 -4.54567 4.56875
rclavicle 5.96354e-015 2.38542e-014
rhumerus -9.85284 -0.223881 -75.1549
rradius 138.394
rwrist 2.45271
rhand -12.3973 26.7492
rfingers 7.12502
rthumb 13.6741 -2.78163
lclavicle 5.96354e-015 2.38542e-014
lhumerus 0.766482 -21.3732 90.2161
lradius 122.667
lwrist -7.6779
lhand -5.49477 6.87278
lfingers 7.12502
lthumb 20.318 35.83
rfemur -34.9598 -2.20433 -4.81575
rtibia 56.3668
rfoot -5.70222 -7.24027
rtoes -4.65771
lfemur -5.62123 4.72821 -8.6103
ltibia 40.5057
lfoot -27.2448 5.25865
ltoes -35.2988
1877
root 3.65313 16.318 -2.98638 2.57019 27.2236 3.57129
lowerback 11.7364 -4.72136 -4.96774
upperback 1.65399 -6.7039 3.3465
thorax -3.82674 -3.24345 7.26863
lowerneck -18.2266 -8.35378 -13.1282
upperneck 18.0557 -10.3709 11.0562
head 10.0465 -4.55862 4.5181
rclavicle 5.02925e-014 -1.98785e-014
rhumerus -10.5352 -0.149113 -75.0168
rradius 138.502
rwrist 2.57186
rhand -11.8233 26.5884
rfingers 7.12502
rthumb 14.2273 -2.90432
lclavicle 5.02925e-014 -1.98785e-014
lhumerus 0.0227056 -21.3613 90.7933
lradius 122.282
lwrist -8.014
lhand -5.4711 6.64866
lfingers 7.12502
lthumb 20.3407 35.6034
rfemur -34.8731 -2.23375 -4.23441
rtibia 55.962
rfoot -5.03129 -6.72468
rtoes -5.29211
lfemur -5.79439 4.24503 -8.35668
ltibia 40.4667
lfoot -26.5836 5.2155
ltoes -34.788
1878
root 3.6307 16.3811 -2.97217 2.53712 27.1314 3.32026
lowerback 11.422 -4.69172 -5.28081
upperback 1.64635 -6.68374 3.58441
thorax -3.59878 -3.24178 7.66041
lowerneck -18.0274 -8.3598 -13.2042
upperneck 18.1275 -10.4125 11.1495
head 10.0514 -4.57958 4.56313
rclavicle 5.14852e-014 -3.26007e-014
rhumerus -11.0766 -0.188624 -75.0097
rradius 138.489
rwrist 3.03811
rhand -11.7309 26.4679
rfingers 7.12502
rthumb 14.3163 -3.01854
lclavicle 5.14852e-014 -3.26007e-014
lhumerus -0.545291 -21.5806 91.1712
lradius 121.881
lwrist -8.49536
lhand -5.60245 6.44385
lfingers 7.12502
lthumb 20.2145 35.412
rfemur -34.8031 -2.23135 -3.65487
rtibia 55.5079
rfoot -4.36805 -6.17883
rtoes -6.33982
lfemur -5.83879 4.09248 -8.07673
ltibia 40.3219
lfoot -25.8903 4.8387
ltoes -34.5565
